<?xml version="1.0" encoding="UTF-8" standalone="no"?><!DOCTYPE svg PUBLIC "-//W3C//DTD SVG 1.1//EN" "http://www.w3.org/Graphics/SVG/1.1/DTD/svg11.dtd"><svg width="100%" height="100%" viewBox="0 0 23 28" version="1.1" xmlns="http://www.w3.org/2000/svg" xmlns:xlink="http://www.w3.org/1999/xlink" xml:space="preserve" xmlns:serif="http://www.serif.com/" style="fill-rule:evenodd;clip-rule:evenodd;"><circle cx="11.5" cy="10.232" r="2.05" style="fill:#61dafb;"/><g><ellipse cx="11.5" cy="10.232" rx="11" ry="4.2" style="fill:none;stroke:#61dafb;stroke-width:1px;"/><path d="M15.137,8.132c3.036,5.258 3.87,10.467 1.863,11.626c-2.007,1.159 -6.102,-2.169 -9.137,-7.426c-3.036,-5.258 -3.87,-10.467 -1.863,-11.626c2.007,-1.159 6.102,2.169 9.137,7.426Z" style="fill:none;stroke:#61dafb;stroke-width:1px;"/><path d="M15.137,12.332c-3.036,5.258 -7.13,8.585 -9.137,7.426c-2.007,-1.159 -1.173,-6.369 1.863,-11.626c3.036,-5.258 7.13,-8.585 9.137,-7.426c2.007,1.159 1.173,6.369 -1.863,11.626Z" style="fill:none;stroke:#61dafb;stroke-width:1px;"/><g transform="matrix(7,0,0,7,20.393555,26.185663)"></g><text x="2.107px" y="26.186px" style="font-family:'ArialMT', 'Arial', sans-serif;font-size:7px;fill:#61dafb;">React</text></g></svg>